<?xml version="1.0" encoding="UTF-8" standalone="no"?>
<svg
   xmlns:dc="http://purl.org/dc/elements/1.1/"
   xmlns:cc="http://creativecommons.org/ns#"
   xmlns:rdf="http://www.w3.org/1999/02/22-rdf-syntax-ns#"
   xmlns:svg="http://www.w3.org/2000/svg"
   xmlns="http://www.w3.org/2000/svg"
   xmlns:sodipodi="http://sodipodi.sourceforge.net/DTD/sodipodi-0.dtd"
   xmlns:inkscape="http://www.inkscape.org/namespaces/inkscape"
   width="196px"
   height="196px"
   viewBox="0 0 196 196"
   version="1.1"
   id="svg891"
   sodipodi:docname="medium.svg"
   inkscape:version="0.92.2 (unknown)">
  <metadata
     id="metadata895">
    <rdf:RDF>
      <cc:Work
         rdf:about="">
        <dc:format>image/svg+xml</dc:format>
        <dc:type
           rdf:resource="http://purl.org/dc/dcmitype/StillImage" />
      </cc:Work>
    </rdf:RDF>
  </metadata>
  <sodipodi:namedview
     pagecolor="#ffffff"
     bordercolor="#666666"
     borderopacity="1"
     objecttolerance="10"
     gridtolerance="10"
     guidetolerance="10"
     inkscape:pageopacity="0"
     inkscape:pageshadow="2"
     inkscape:window-width="2560"
     inkscape:window-height="1377"
     id="namedview893"
     showgrid="false"
     inkscape:zoom="5.9591837"
     inkscape:cx="98"
     inkscape:cy="98"
     inkscape:window-x="0"
     inkscape:window-y="30"
     inkscape:window-maximized="1"
     inkscape:current-layer="Page-1" />
  <!-- Generator: Sketch 46.2 (44496) - http://www.bohemiancoding.com/sketch -->
  <title
     id="title881">Monogram</title>
  <desc
     id="desc883">Created with Sketch.</desc>
  <defs
     id="defs885" />
  <g
     id="Page-1"
     stroke="none"
     stroke-width="1"
     fill="none"
     fill-rule="evenodd">
    <rect
       style="fill:#ffffff;fill-rule:nonzero;fill-opacity:1"
       height="196"
       width="196"
       y="0"
       x="0"
       id="Rectangle-path" />
    <path
       style="fill:#12100e;fill-rule:nonzero;fill-opacity:1"
       inkscape:connector-curvature="0"
       id="Shape"
       d="M 46.53408,65.215755 C 46.696838,63.607657 46.0836,62.018231 44.88282,60.93592 L 32.65126,46.201058 V 44 H 70.630252 L 99.985994,108.38095 125.79458,44 H 162 v 2.201058 l -10.45798,10.027043 c -0.9016,0.687247 -1.34883,1.816785 -1.162,2.934744 v 73.674305 c -0.18683,1.11796 0.2604,2.2475 1.162,2.93475 l 10.21335,10.02704 V 148 h -51.37255 v -2.20106 l 10.5803,-10.2716 c 1.03968,-1.03939 1.03968,-1.34509 1.03968,-2.93475 V 73.04174 l -29.416899,74.7137 H 88.610644 L 54.362278,73.04174 v 50.07407 c -0.28555,2.10526 0.413642,4.22479 1.895892,5.74721 l 13.760504,16.69136 v 2.20106 H 31 v -2.20106 l 13.760504,-16.69136 c 1.471458,-1.52494 2.12988,-3.65853 1.773576,-5.74721 z" />
  </g>
</svg>
